<mxfile host="65bd71144e">
    <diagram id="rC4ROySqT9OwjYvfTxM2" name="Page-1">
        <mxGraphModel dx="1130" dy="1676" grid="1" gridSize="10" guides="1" tooltips="1" connect="1" arrows="1" fold="1" page="1" pageScale="1" pageWidth="850" pageHeight="1100" math="0" shadow="0">
            <root>
                <mxCell id="0"/>
                <mxCell id="1" parent="0"/>
                <mxCell id="40" value="Table_individus" style="shape=table;startSize=30;container=1;collapsible=0;childLayout=tableLayout;fontStyle=1;align=center;" vertex="1" parent="1">
                    <mxGeometry x="20" y="-570" width="768" height="260" as="geometry"/>
                </mxCell>
                <mxCell id="41" value="" style="shape=tableRow;horizontal=0;startSize=0;swimlaneHead=0;swimlaneBody=0;top=0;left=0;bottom=0;right=0;collapsible=0;dropTarget=0;fillColor=none;points=[[0,0.5],[1,0.5]];portConstraint=eastwest;" vertex="1" parent="40">
                    <mxGeometry y="30" width="768" height="46" as="geometry"/>
                </mxCell>
                <mxCell id="78" value="prenom" style="shape=partialRectangle;html=1;whiteSpace=wrap;connectable=0;fillColor=none;top=0;left=0;bottom=0;right=0;overflow=hidden;" vertex="1" parent="41">
                    <mxGeometry width="154" height="46" as="geometry">
                        <mxRectangle width="154" height="46" as="alternateBounds"/>
                    </mxGeometry>
                </mxCell>
                <mxCell id="42" value="genre" style="shape=partialRectangle;html=1;whiteSpace=wrap;connectable=0;fillColor=none;top=0;left=0;bottom=0;right=0;overflow=hidden;" vertex="1" parent="41">
                    <mxGeometry x="154" width="154" height="46" as="geometry">
                        <mxRectangle width="154" height="46" as="alternateBounds"/>
                    </mxGeometry>
                </mxCell>
                <mxCell id="43" value="age" style="shape=partialRectangle;html=1;whiteSpace=wrap;connectable=0;fillColor=none;top=0;left=0;bottom=0;right=0;overflow=hidden;" vertex="1" parent="41">
                    <mxGeometry x="308" width="152" height="46" as="geometry">
                        <mxRectangle width="152" height="46" as="alternateBounds"/>
                    </mxGeometry>
                </mxCell>
                <mxCell id="44" value="metier" style="shape=partialRectangle;html=1;whiteSpace=wrap;connectable=0;fillColor=none;top=0;left=0;bottom=0;right=0;overflow=hidden;" vertex="1" parent="41">
                    <mxGeometry x="460" width="154" height="46" as="geometry">
                        <mxRectangle width="154" height="46" as="alternateBounds"/>
                    </mxGeometry>
                </mxCell>
                <mxCell id="87" value="années_experience" style="shape=partialRectangle;html=1;whiteSpace=wrap;connectable=0;fillColor=none;top=0;left=0;bottom=0;right=0;overflow=hidden;" vertex="1" parent="41">
                    <mxGeometry x="614" width="154" height="46" as="geometry">
                        <mxRectangle width="154" height="46" as="alternateBounds"/>
                    </mxGeometry>
                </mxCell>
                <mxCell id="45" value="" style="shape=tableRow;horizontal=0;startSize=0;swimlaneHead=0;swimlaneBody=0;top=0;left=0;bottom=0;right=0;collapsible=0;dropTarget=0;fillColor=none;points=[[0,0.5],[1,0.5]];portConstraint=eastwest;" vertex="1" parent="40">
                    <mxGeometry y="76" width="768" height="46" as="geometry"/>
                </mxCell>
                <mxCell id="79" value="julie" style="shape=partialRectangle;html=1;whiteSpace=wrap;connectable=0;fillColor=none;top=0;left=0;bottom=0;right=0;overflow=hidden;" vertex="1" parent="45">
                    <mxGeometry width="154" height="46" as="geometry">
                        <mxRectangle width="154" height="46" as="alternateBounds"/>
                    </mxGeometry>
                </mxCell>
                <mxCell id="46" value="femme" style="shape=partialRectangle;html=1;whiteSpace=wrap;connectable=0;fillColor=none;top=0;left=0;bottom=0;right=0;overflow=hidden;" vertex="1" parent="45">
                    <mxGeometry x="154" width="154" height="46" as="geometry">
                        <mxRectangle width="154" height="46" as="alternateBounds"/>
                    </mxGeometry>
                </mxCell>
                <mxCell id="47" value="24" style="shape=partialRectangle;html=1;whiteSpace=wrap;connectable=0;fillColor=none;top=0;left=0;bottom=0;right=0;overflow=hidden;" vertex="1" parent="45">
                    <mxGeometry x="308" width="152" height="46" as="geometry">
                        <mxRectangle width="152" height="46" as="alternateBounds"/>
                    </mxGeometry>
                </mxCell>
                <mxCell id="48" value="électricienne" style="shape=partialRectangle;html=1;whiteSpace=wrap;connectable=0;fillColor=none;top=0;left=0;bottom=0;right=0;overflow=hidden;" vertex="1" parent="45">
                    <mxGeometry x="460" width="154" height="46" as="geometry">
                        <mxRectangle width="154" height="46" as="alternateBounds"/>
                    </mxGeometry>
                </mxCell>
                <mxCell id="88" value="4" style="shape=partialRectangle;html=1;whiteSpace=wrap;connectable=0;fillColor=none;top=0;left=0;bottom=0;right=0;overflow=hidden;" vertex="1" parent="45">
                    <mxGeometry x="614" width="154" height="46" as="geometry">
                        <mxRectangle width="154" height="46" as="alternateBounds"/>
                    </mxGeometry>
                </mxCell>
                <mxCell id="49" value="" style="shape=tableRow;horizontal=0;startSize=0;swimlaneHead=0;swimlaneBody=0;top=0;left=0;bottom=0;right=0;collapsible=0;dropTarget=0;fillColor=none;points=[[0,0.5],[1,0.5]];portConstraint=eastwest;" vertex="1" parent="40">
                    <mxGeometry y="122" width="768" height="46" as="geometry"/>
                </mxCell>
                <mxCell id="80" value="Françoise" style="shape=partialRectangle;html=1;whiteSpace=wrap;connectable=0;fillColor=none;top=0;left=0;bottom=0;right=0;overflow=hidden;" vertex="1" parent="49">
                    <mxGeometry width="154" height="46" as="geometry">
                        <mxRectangle width="154" height="46" as="alternateBounds"/>
                    </mxGeometry>
                </mxCell>
                <mxCell id="50" value="femme" style="shape=partialRectangle;html=1;whiteSpace=wrap;connectable=0;fillColor=none;top=0;left=0;bottom=0;right=0;overflow=hidden;" vertex="1" parent="49">
                    <mxGeometry x="154" width="154" height="46" as="geometry">
                        <mxRectangle width="154" height="46" as="alternateBounds"/>
                    </mxGeometry>
                </mxCell>
                <mxCell id="51" value="40" style="shape=partialRectangle;html=1;whiteSpace=wrap;connectable=0;fillColor=none;top=0;left=0;bottom=0;right=0;overflow=hidden;" vertex="1" parent="49">
                    <mxGeometry x="308" width="152" height="46" as="geometry">
                        <mxRectangle width="152" height="46" as="alternateBounds"/>
                    </mxGeometry>
                </mxCell>
                <mxCell id="52" value="comptable" style="shape=partialRectangle;html=1;whiteSpace=wrap;connectable=0;fillColor=none;top=0;left=0;bottom=0;right=0;overflow=hidden;" vertex="1" parent="49">
                    <mxGeometry x="460" width="154" height="46" as="geometry">
                        <mxRectangle width="154" height="46" as="alternateBounds"/>
                    </mxGeometry>
                </mxCell>
                <mxCell id="89" value="18" style="shape=partialRectangle;html=1;whiteSpace=wrap;connectable=0;fillColor=none;top=0;left=0;bottom=0;right=0;overflow=hidden;" vertex="1" parent="49">
                    <mxGeometry x="614" width="154" height="46" as="geometry">
                        <mxRectangle width="154" height="46" as="alternateBounds"/>
                    </mxGeometry>
                </mxCell>
                <mxCell id="74" style="shape=tableRow;horizontal=0;startSize=0;swimlaneHead=0;swimlaneBody=0;top=0;left=0;bottom=0;right=0;collapsible=0;dropTarget=0;fillColor=none;points=[[0,0.5],[1,0.5]];portConstraint=eastwest;" vertex="1" parent="40">
                    <mxGeometry y="168" width="768" height="46" as="geometry"/>
                </mxCell>
                <mxCell id="81" value="Romain" style="shape=partialRectangle;html=1;whiteSpace=wrap;connectable=0;fillColor=none;top=0;left=0;bottom=0;right=0;overflow=hidden;" vertex="1" parent="74">
                    <mxGeometry width="154" height="46" as="geometry">
                        <mxRectangle width="154" height="46" as="alternateBounds"/>
                    </mxGeometry>
                </mxCell>
                <mxCell id="75" value="homme" style="shape=partialRectangle;html=1;whiteSpace=wrap;connectable=0;fillColor=none;top=0;left=0;bottom=0;right=0;overflow=hidden;" vertex="1" parent="74">
                    <mxGeometry x="154" width="154" height="46" as="geometry">
                        <mxRectangle width="154" height="46" as="alternateBounds"/>
                    </mxGeometry>
                </mxCell>
                <mxCell id="76" value="30" style="shape=partialRectangle;html=1;whiteSpace=wrap;connectable=0;fillColor=none;top=0;left=0;bottom=0;right=0;overflow=hidden;" vertex="1" parent="74">
                    <mxGeometry x="308" width="152" height="46" as="geometry">
                        <mxRectangle width="152" height="46" as="alternateBounds"/>
                    </mxGeometry>
                </mxCell>
                <mxCell id="77" value="développeur" style="shape=partialRectangle;html=1;whiteSpace=wrap;connectable=0;fillColor=none;top=0;left=0;bottom=0;right=0;overflow=hidden;" vertex="1" parent="74">
                    <mxGeometry x="460" width="154" height="46" as="geometry">
                        <mxRectangle width="154" height="46" as="alternateBounds"/>
                    </mxGeometry>
                </mxCell>
                <mxCell id="90" value="/" style="shape=partialRectangle;html=1;whiteSpace=wrap;connectable=0;fillColor=none;top=0;left=0;bottom=0;right=0;overflow=hidden;" vertex="1" parent="74">
                    <mxGeometry x="614" width="154" height="46" as="geometry">
                        <mxRectangle width="154" height="46" as="alternateBounds"/>
                    </mxGeometry>
                </mxCell>
                <mxCell id="82" style="shape=tableRow;horizontal=0;startSize=0;swimlaneHead=0;swimlaneBody=0;top=0;left=0;bottom=0;right=0;collapsible=0;dropTarget=0;fillColor=none;points=[[0,0.5],[1,0.5]];portConstraint=eastwest;" vertex="1" parent="40">
                    <mxGeometry y="214" width="768" height="46" as="geometry"/>
                </mxCell>
                <mxCell id="83" value="Manuel" style="shape=partialRectangle;html=1;whiteSpace=wrap;connectable=0;fillColor=none;top=0;left=0;bottom=0;right=0;overflow=hidden;" vertex="1" parent="82">
                    <mxGeometry width="154" height="46" as="geometry">
                        <mxRectangle width="154" height="46" as="alternateBounds"/>
                    </mxGeometry>
                </mxCell>
                <mxCell id="84" value="homme" style="shape=partialRectangle;html=1;whiteSpace=wrap;connectable=0;fillColor=none;top=0;left=0;bottom=0;right=0;overflow=hidden;" vertex="1" parent="82">
                    <mxGeometry x="154" width="154" height="46" as="geometry">
                        <mxRectangle width="154" height="46" as="alternateBounds"/>
                    </mxGeometry>
                </mxCell>
                <mxCell id="85" value="39" style="shape=partialRectangle;html=1;whiteSpace=wrap;connectable=0;fillColor=none;top=0;left=0;bottom=0;right=0;overflow=hidden;" vertex="1" parent="82">
                    <mxGeometry x="308" width="152" height="46" as="geometry">
                        <mxRectangle width="152" height="46" as="alternateBounds"/>
                    </mxGeometry>
                </mxCell>
                <mxCell id="86" value="professeur" style="shape=partialRectangle;html=1;whiteSpace=wrap;connectable=0;fillColor=none;top=0;left=0;bottom=0;right=0;overflow=hidden;" vertex="1" parent="82">
                    <mxGeometry x="460" width="154" height="46" as="geometry">
                        <mxRectangle width="154" height="46" as="alternateBounds"/>
                    </mxGeometry>
                </mxCell>
                <mxCell id="91" value="12" style="shape=partialRectangle;html=1;whiteSpace=wrap;connectable=0;fillColor=none;top=0;left=0;bottom=0;right=0;overflow=hidden;" vertex="1" parent="82">
                    <mxGeometry x="614" width="154" height="46" as="geometry">
                        <mxRectangle width="154" height="46" as="alternateBounds"/>
                    </mxGeometry>
                </mxCell>
            </root>
        </mxGraphModel>
    </diagram>
</mxfile>